#!OML:ASF H:\ManfredETheater\Project 1\Capture day 1\Session 1\subject.ASF
:FULLY-SPECIFIED
:DEGREES
94
root 3.96268 23.8606 1.88493 -180.332 -26.7323 187.694
lowerback 24.1578 0.21464 2.62086
upperback 6.43749 0.0184728 2.47641
thorax -6.32698 -0.469601 1.24215
lowerneck -6.97984 -7.43137 -9.7034
upperneck 5.56598 -9.6183 8.29482
head 3.66646 -4.6473 3.52201
rclavicle -2.14687e-014 7.95139e-015
rhumerus -32.5328 17.9472 -48.7405
rradius 60.9242
rwrist 3.28876
rhand -24.4982 1.27602
rfingers 7.12502
rthumb 1.99616 -28.6944
lclavicle -2.14687e-014 7.95139e-015
lhumerus -29.5236 -12.0402 72.536
lradius 44.4945
lwrist -1.49744
lhand -22.4816 -15.7321
lfingers 7.12502
lthumb 3.94373 14.2111
rfemur -49.1372 -10.8889 22.3884
rtibia 49.7246
rfoot -15.2864 -14.9632
rtoes -27.9195
lfemur -55.0336 12.3987 -26.4258
ltibia 82.9732
lfoot -12.4898 -10.4152
ltoes -12.6462
95
root 3.9197 23.7849 1.46316 -180.316 -26.2795 187.496
lowerback 24.1538 0.449725 2.47461
upperback 6.56959 0.251494 2.27197
thorax -6.18122 -0.361449 1.03407
lowerneck -6.83314 -7.47346 -9.8988
upperneck 5.59619 -9.68536 8.46475
head 3.67591 -4.68124 3.60357
rclavicle -4.96962e-015 -1.96797e-014
rhumerus -31.2824 18.6389 -46.3063
rradius 61.7449
rwrist 2.48047
rhand -24.4923 0.869223
rfingers 7.12502
rthumb 2.00191 -29.1011
lclavicle -4.96962e-015 -1.96797e-014
lhumerus -31.5275 -12.6823 72.0038
lradius 45.0818
lwrist -1.69728
lhand -22.5619 -15.7645
lfingers 7.12502
lthumb 3.86619 14.1802
rfemur -48.636 -10.5257 22.239
rtibia 49.4057
rfoot -15.5199 -14.9542
rtoes -28.118
lfemur -55.0559 12.5438 -26.6477
ltibia 80.1552
lfoot -12.2619 -10.2176
ltoes -12.5195
96
root 3.87453 23.6976 1.04148 -180.307 -25.7536 187.328
lowerback 24.1252 0.683199 2.3377
upperback 6.67626 0.488651 2.07077
thorax -6.05018 -0.250008 0.82408
lowerneck -6.67916 -7.48353 -10.0494
upperneck 5.65712 -9.71278 8.58425
head 3.68513 -4.69691 3.66582
rclavicle -2.55438e-014 2.52457e-014
rhumerus -29.8102 19.1188 -43.7703
rradius 62.2897
rwrist 1.38711
rhand -24.3758 0.337663
rfingers 7.12502
rthumb 2.11445 -29.6316
lclavicle -2.55438e-014 2.52457e-014
lhumerus -33.6668 -13.2891 71.4838
lradius 45.7513
lwrist -1.87776
lhand -22.6181 -15.7501
lfingers 7.12502
lthumb 3.81189 14.1956
rfemur -48.1461 -10.0857 22.0989
rtibia 49.0688
rfoot -15.6773 -14.9344
rtoes -28.2934
lfemur -54.9629 12.6699 -26.7226
ltibia 77.2314
lfoot -11.7772 -10.1284
ltoes -12.389
97
root 3.82742 23.5989 0.619976 -180.3 -25.1789 187.188
lowerback 24.0665 0.907069 2.21855
upperback 6.75784 0.721845 1.87102
thorax -5.93037 -0.138945 0.60773
lowerneck -6.52903 -7.46722 -10.152
upperneck 5.75032 -9.70805 8.66113
head 3.69716 -4.69737 3.70964
rclavicle 4.74101e-014 -2.127e-014
rhumerus -28.12 19.3557 -41.1721
rradius 62.529
rwrist 0.189725
rhand -24.1764 -0.257395
rfingers 7.12502
rthumb 2.30698 -30.2247
lclavicle 4.74101e-014 -2.127e-014
lhumerus -35.9362 -13.8669 70.9881
lradius 46.519
lwrist -1.88465
lhand -22.6166 -15.7152
lfingers 7.12502
lthumb 3.81335 14.2304
rfemur -47.6853 -9.60217 21.9744
rtibia 48.7526
rfoot -15.7659 -14.882
rtoes -28.413
lfemur -54.7712 12.7298 -26.6426
ltibia 74.2573
lfoot -11.022 -10.1215
ltoes -12.228
98
root 3.77873 23.4893 0.198501 -180.298 -24.5743 187.084
lowerback 23.9702 1.11664 2.12325
upperback 6.8176 0.946251 1.67407
thorax -5.81408 -0.030527 0.384453
lowerneck -6.38486 -7.42996 -10.2064
upperneck 5.86881 -9.67876 8.70717
head 3.71147 -4.68588 3.73797
rclavicle -2.42517e-014 7.95139e-015
rhumerus -26.2223 19.3253 -38.5573
rradius 62.4486
rwrist -0.926177
rhand -23.9157 -0.853798
rfingers 7.12502
rthumb 2.55882 -30.8182
lclavicle -2.42517e-014 7.95139e-015
lhumerus -38.3204 -14.4104 70.5245
lradius 47.3837
lwrist -1.6302
lhand -22.5493 -15.6632
lfingers 7.12502
lthumb 3.8783 14.2813
rfemur -47.2226 -9.09752 21.8744
rtibia 48.377
rfoot -15.7165 -14.7819
rtoes -28.4948
lfemur -54.4845 12.6847 -26.392
ltibia 71.2339
lfoot -9.96672 -10.1632
ltoes -12.026
99
root 3.72858 23.3513 -0.229534 -180.299 -23.9613 187.015
lowerback 23.8344 1.30383 2.05331
upperback 6.85672 1.15206 1.48311
thorax -5.69905 0.0705996 0.159822
lowerneck -6.26 -7.37354 -10.2209
upperneck 6.0179 -9.62604 8.72972
head 3.73274 -4.66257 3.75367
rclavicle 4.4329e-014 5.56597e-015
rhumerus -24.1289 19.0175 -35.9705
rradius 62.048
rwrist -1.787
rhand -23.6298 -1.39423
rfingers 7.12502
rthumb 2.83488 -31.3551
lclavicle 4.4329e-014 5.56597e-015
lhumerus -40.8187 -14.9031 70.1007
lradius 48.3478
lwrist -1.09346
lhand -22.4181 -15.6216
lfingers 7.12502
lthumb 4.00505 14.3206
rfemur -46.8136 -8.5989 21.803
rtibia 47.9873
rfoot -15.5142 -14.6232
rtoes -28.547
lfemur -54.1872 12.4948 -25.9627
ltibia 68.27
lfoot -8.62734 -10.2083
ltoes -11.8236
100
root 3.67768 23.2217 -0.651572 -180.309 -23.358 186.976
lowerback 23.6584 1.47013 2.00155
upperback 6.88011 1.33916 1.30159
thorax -5.57972 0.16426 -0.0581564
lowerneck -6.1597 -7.30687 -10.202
upperneck 6.19716 -9.56136 8.73643
head 3.76355 -4.63277 3.75903
rclavicle 8.34896e-015 -7.95139e-016
rhumerus -21.8781 18.4213 -33.4618
rradius 61.342
rwrist -2.25884
rhand -23.365 -1.81995
rfingers 7.12502
rthumb 3.09061 -31.7773
lclavicle 8.34896e-015 -7.95139e-016
lhumerus -43.4106 -15.3372 69.7227
lradius 49.3908
lwrist -0.332814
lhand -22.255 -15.6037
lfingers 7.12502
lthumb 4.16249 14.3353
rfemur -46.3194 -8.12489 21.7567
rtibia 47.453
rfoot -15.1003 -14.4036
rtoes -28.7196
lfemur -53.7171 12.1306 -25.3542
ltibia 65.2276
lfoot -7.05837 -10.2097
ltoes -11.6741
101
root 3.62625 23.0814 -1.07489 -180.325 -22.7798 186.957
lowerback 23.4423 1.61395 1.95282
upperback 6.89189 1.50175 1.13312
thorax -5.45242 0.24752 -0.255207
lowerneck -6.08499 -7.23155 -10.1618
upperneck 6.40243 -9.48594 8.73394
head 3.80389 -4.59708 3.75786
rclavicle -5.04913e-014 4.17448e-014
rhumerus -19.4907 17.5363 -31.0704
rradius 60.3651
rwrist -2.29476
rhand -23.1365 -2.11051
rfingers 7.12502
rthumb 3.31133 -32.0645
lclavicle -5.04913e-014 4.17448e-014
lhumerus -46.0889 -15.6932 69.3953
lradius 50.4996
lwrist 0.560923
lhand -22.0702 -15.5925
lfingers 7.12502
lthumb 4.34102 14.343
rfemur -45.7981 -7.69332 21.7248
rtibia 46.835
rfoot -14.545 -14.1025
rtoes -28.7385
lfemur -53.1649 11.5687 -24.5778
ltibia 62.2323
lfoot -5.3638 -10.1313
ltoes -11.6608
102
root 3.57465 22.93 -1.50016 -180.347 -22.2346 186.946
lowerback 23.1841 1.74011 1.89196
upperback 6.89398 1.64286 0.980615
thorax -5.31492 0.321849 -0.420313
lowerneck -6.03329 -7.15177 -10.1026
upperneck 6.63159 -9.40538 8.72227
head 3.8534 -4.55836 3.75025
rclavicle -1.05555e-013 4.13472e-014
rhumerus -17.0089 16.3555 -28.845
rradius 59.1654
rwrist -1.91975
rhand -22.9819 -2.26654
rfingers 7.12502
rthumb 3.4606 -32.2182
lclavicle -1.05555e-013 4.13472e-014
lhumerus -48.8351 -15.9712 69.1251
lradius 51.6515
lwrist 1.49978
lhand -21.8845 -15.5655
lfingers 7.12502
lthumb 4.52029 14.3663
rfemur -45.2232 -7.31339 21.7002
rtibia 46.0749
rfoot -13.6946 -13.7457
rtoes -28.834
lfemur -52.5312 10.7992 -23.6498
ltibia 59.2834
lfoot -3.61596 -9.94094
ltoes -11.7762
103
root 3.52294 22.7676 -1.92813 -180.38 -21.7281 186.933
lowerback 22.8808 1.85283 1.80729
upperback 6.89649 1.76401 0.848338
thorax -5.15538 0.387423 -0.542527
lowerneck -6.01441 -7.07181 -10.0427
upperneck 6.88539 -9.32341 8.7075
head 3.91552 -4.51836 3.74031
rclavicle 6.93758e-014 -6.75868e-015
rhumerus -14.4576 14.894 -26.8189
rradius 57.8046
rwrist -1.27505
rhand -22.912 -2.34116
rfingers 7.12502
rthumb 3.5281 -32.2917
lclavicle 6.93758e-014 -6.75868e-015
lhumerus -51.6287 -16.1713 68.9248
lradius 52.834
lwrist 2.4229
lhand -21.7072 -15.5011
lfingers 7.12502
lthumb 4.69148 14.427
rfemur -44.6064 -6.99223 21.6729
rtibia 45.2419
rfoot -12.5991 -13.3506
rtoes -28.8835
lfemur -51.836 9.82137 -22.5884
ltibia 56.4642
lfoot -1.95726 -9.63016
ltoes -12.0177
104
root 3.47109 22.5936 -2.35925 -180.419 -21.263 186.9
lowerback 22.5358 1.95593 1.68633
upperback 6.89508 1.86856 0.730185
thorax -4.98079 0.446094 -0.622388
lowerneck -6.00908 -6.99278 -9.97849
upperneck 7.1569 -9.24327 8.68795
head 3.98506 -4.47918 3.72751
rclavicle 1.72943e-014 -2.78299e-015
rhumerus -11.8918 13.18 -25.0374
rradius 56.3668
rwrist -0.564725
rhand -22.936 -2.39275
rfingers 7.12502
rthumb 3.50487 -32.3437
lclavicle 1.72943e-014 -2.78299e-015
lhumerus -54.4625 -16.3142 68.8043
lradius 54.0444
lwrist 3.3146
lhand -21.526 -15.3885
lfingers 7.12502
lthumb 4.86648 14.5356
rfemur -43.9462 -6.73642 21.6264
rtibia 44.345
rfoot -11.2298 -12.9338
rtoes -28.8705
lfemur -51.1019 8.64647 -21.4328
ltibia 53.8214
lfoot -0.478923 -9.19327
ltoes -12.4207
105
root 3.41925 22.4078 -2.79385 -180.465 -20.8338 186.842
lowerback 22.1433 2.0572 1.52667
upperback 6.89285 1.96612 0.624397
thorax -4.78486 0.502364 -0.662839
lowerneck -6.02508 -6.92359 -9.90934
upperneck 7.45267 -9.17651 8.66045
head 4.06624 -4.44641 3.70957
rclavicle 3.20043e-014 6.36111e-015
rhumerus -9.35209 11.2408 -23.5313
rradius 54.9381
rwrist -0.0302209
rhand -23.0184 -2.49027
rfingers 7.12502
rthumb 3.4253 -32.4425
lclavicle 3.20043e-014 6.36111e-015
lhumerus -57.3152 -16.428 68.7822
lradius 55.2899
lwrist 4.21461
lhand -21.3255 -15.1987
lfingers 7.12502
lthumb 5.06009 14.7209
rfemur -43.2398 -6.53358 21.5542
rtibia 43.3934
rfoot -9.59922 -12.5228
rtoes -28.7237
lfemur -50.3545 7.30367 -20.2128
ltibia 51.3976
lfoot 0.760982 -8.63327
ltoes -12.9796
106
root 3.36718 22.2099 -3.23208 -180.512 -20.4382 186.747
lowerback 21.6999 2.16054 1.32919
upperback 6.88897 2.06263 0.523479
thorax -4.56627 0.559196 -0.673799
lowerneck -6.04494 -6.86582 -9.83897
upperneck 7.76224 -9.12638 8.62931
head 4.15371 -4.42204 3.68884
rclavicle -7.15625e-015 1.86858e-014
rhumerus -6.87363 9.12454 -22.3191
rradius 53.6016
rwrist 0.10891
rhand -23.1265 -2.68404
rfingers 7.12502
rthumb 3.32096 -32.6379
lclavicle -7.15625e-015 1.86858e-014
lhumerus -60.1659 -16.5406 68.8774
lradius 56.5816
lwrist 5.18698
lhand -21.0919 -14.9105
lfingers 7.12502
lthumb 5.28558 15.0036
rfemur -42.4901 -6.38192 21.4427
rtibia 42.3982
rfoot -7.7193 -12.1448
rtoes -28.4274
lfemur -49.6191 5.83433 -18.9775
ltibia 49.2298
lfoot 1.74692 -7.97898
ltoes -13.6569
107
root 3.31489 21.9998 -3.67398 -180.561 -20.0794 186.608
lowerback 21.2082 2.26826 1.09715
upperback 6.88281 2.16248 0.422482
thorax -4.32657 0.618592 -0.66339
lowerneck -6.07037 -6.82312 -9.77193
upperneck 8.08993 -9.09797 8.59745
head 4.24991 -4.40855 3.66644
rclavicle 1.0138e-014 -1.59028e-015
rhumerus -4.48643 6.88725 -21.4044
rradius 52.428
rwrist -0.23874
rhand -23.2569 -2.9868
rfingers 7.12502
rthumb 3.19502 -32.9426
lclavicle 1.0138e-014 -1.59028e-015
lhumerus -62.9927 -16.6774 69.112
lradius 57.9386
lwrist 6.31004
lhand -20.8116 -14.517
lfingers 7.12502
lthumb 5.55624 15.3902
rfemur -41.6923 -6.2704 21.2767
rtibia 41.3716
rfoot -5.59688 -11.8449
rtoes -27.9362
lfemur -48.9136 4.28601 -17.776
ltibia 47.3423
lfoot 2.51109 -7.27528
ltoes -14.4228
108
root 3.26249 21.7773 -4.11942 -180.62 -19.756 186.438
lowerback 20.6712 2.38448 0.848714
upperback 6.8738 2.27559 0.322339
thorax -4.06686 0.685252 -0.643055
lowerneck -6.08026 -6.80012 -9.71278
upperneck 8.41968 -9.09879 8.5721
head 4.34768 -4.40999 3.64554
rclavicle -5.84427e-014 4.92986e-014
rhumerus -2.21278 4.57752 -20.7729
rradius 51.4738
rwrist -1.05189
rhand -23.4076 -3.36619
rfingers 7.12502
rthumb 3.04944 -33.3241
lclavicle -5.84427e-014 4.92986e-014
lhumerus -65.762 -16.8579 69.5039
lradius 59.3635
lwrist 7.62791
lhand -20.506 -14.0288
lfingers 7.12502
lthumb 5.85134 15.8704
rfemur -40.841 -6.18295 21.065
rtibia 40.3291
rfoot -3.26654 -11.6691
rtoes -27.2481
lfemur -48.2503 2.72139 -16.6404
ltibia 45.7473
lfoot 3.10774 -6.5753
ltoes -15.1878
